<?xml version="1.0" encoding="iso-8859-1"?>
<!-- Generator: Adobe Illustrator 19.0.0, SVG Export Plug-In . SVG Version: 6.00 Build 0)  -->
<svg version="1.1" id="Layer_1" xmlns="http://www.w3.org/2000/svg" xmlns:xlink="http://www.w3.org/1999/xlink" x="0px" y="0px"
	 viewBox="0 0 511.999 511.999" style="enable-background:new 0 0 511.999 511.999;" xml:space="preserve">
<g>
	<g>
		<path d="M506.164,181.444c-0.538-33.082-2.833-41.114-14.415-52.743l-90.376-90.382c-3.263-3.268-7.719-4.901-11.813-4.901
			h-26.466L334.626,4.897c-3.427-3.445-8.569-5.116-12.76-4.869H190.134c-0.011-0.001-0.022-0.004-0.033-0.006
			c-4.079-0.239-9.302,1.444-12.728,4.875l-28.466,28.52h-26.466c-4.312,0-8.649,1.732-11.813,4.901L20.251,128.7
			c-9.467,9.461-14.674,22.037-14.674,35.411v186.506c0,42.076,33.851,50.71,74.627,50.71c6.035,0,19.485-0.255,25.542-0.381v60.969
			c0,27.618,22.467,50.084,50.084,50.084h200.337c27.618,0,50.084-22.467,50.084-50.084v-61.214h50.084
			c27.619,0.001,50.085-22.464,50.085-50.083C506.421,301.925,506.387,195.195,506.164,181.444z M288.054,33.417l-32.055,40.066
			l-32.053-40.066H288.054z M372.863,233.754H222.611c-9.217,0-16.695,7.473-16.695,16.695s7.478,16.695,16.695,16.695h150.253
			v33.389H139.137v-33.389h16.695c9.217,0,16.695-7.473,16.695-16.695s-7.478-16.695-16.695-16.695h-16.695v-33.39
			c77.605,0,127.994,0,233.726,0V233.754z"/>
	</g>
</g>
<g>
</g>
<g>
</g>
<g>
</g>
<g>
</g>
<g>
</g>
<g>
</g>
<g>
</g>
<g>
</g>
<g>
</g>
<g>
</g>
<g>
</g>
<g>
</g>
<g>
</g>
<g>
</g>
<g>
</g>
</svg>
